<?xml version="1.0" encoding="utf-8"?>
<!-- Generator: Adobe Illustrator 15.1.0, SVG Export Plug-In . SVG Version: 6.00 Build 0)  -->
<!DOCTYPE svg PUBLIC "-//W3C//DTD SVG 1.1//EN" "http://www.w3.org/Graphics/SVG/1.1/DTD/svg11.dtd">
<svg version="1.1" id="Layer_1" xmlns="http://www.w3.org/2000/svg" xmlns:xlink="http://www.w3.org/1999/xlink" x="0px" y="0px"
	 width="16px" height="16px" viewBox="0 0 16 16" enable-background="new 0 0 16 16" xml:space="preserve">
<g>
	<g>
		<g>
			<path fill="#7D7D7D" d="M9,1v2H4V1H9 M10,0H3v4h7V0L10,0z"/>
		</g>
		<rect x="4" y="2" fill="#D1D1D1" width="5" height="1"/>
		<rect x="8" y="1" fill="#D1D1D1" width="1" height="1"/>
	</g>
	<g>
		<g>
			<path fill="#7D7D7D" d="M8.586,6L8.293,6.293L8,6.586V7v1H4V6H8.586 M10,5H3v4h6V7l1-1V5L10,5z"/>
		</g>
		<rect x="4" y="7" fill="#D1D1D1" width="5" height="1"/>
		<rect x="8" y="6" fill="#D1D1D1" width="1" height="1"/>
	</g>
	<g>
		<path fill="#7D7D7D" d="M9,11v2H6H4v-2h2H9 M6,11v-1H3v4h2.722L6,13.444h4V10L6,11z"/>
		<rect x="4" y="12" fill="#D1D1D1" width="5" height="1"/>
		<rect x="8" y="11" fill="#D1D1D1" width="1" height="1"/>
	</g>
	<g>
		<rect x="2" y="1" fill="#7D7D7D" width="1" height="1"/>
		<rect y="6" fill="#7D7D7D" width="3" height="1"/>
		<rect x="2" y="11" fill="#7D7D7D" width="1" height="1"/>
		<rect x="1" y="1" fill="#7D7D7D" width="1" height="10.942"/>
	</g>
	<polygon fill="#7D7D7D" points="16,10 13,10 13,7 10,7 10,10 7,10 7,13 10,13 10,16 13,16 13,13 16,13 	"/>
</g>
</svg>
