<?xml version="1.0" encoding="utf-8"?>
<!-- Generator: Adobe Illustrator 15.1.0, SVG Export Plug-In . SVG Version: 6.00 Build 0)  -->
<!DOCTYPE svg PUBLIC "-//W3C//DTD SVG 1.1//EN" "http://www.w3.org/Graphics/SVG/1.1/DTD/svg11.dtd">
<svg version="1.1" id="Layer_1" xmlns="http://www.w3.org/2000/svg" xmlns:xlink="http://www.w3.org/1999/xlink" x="0px" y="0px"
	 width="16px" height="16px" viewBox="0 0 16 16" enable-background="new 0 0 16 16" xml:space="preserve">
<g>
	<polygon fill="#7D7D7D" points="16,10 13,10 13,7 10,7 10,10 7,10 7,13 10,13 10,16 13,16 13,13 16,13 	"/>
	<g>
		<g>
			<path fill="#7D7D7D" d="M3.073,4.445c0-0.274-0.083-0.5-0.248-0.676C2.659,3.593,2.422,3.563,2.009,3.429
				C1.416,3.261,0.91,2.917,0.594,2.646C0.277,2.376,0.119,2.019,0.119,1.572c0-0.459,0.176-0.836,0.528-1.13
				C0.999,0.147,1.452,0,2.004,0c0.576,0,1.04,0.17,1.391,0.512c0.352,0.339,0.522,0.75,0.511,1.231L3.897,1.767H3.064
				c0-0.341-0.093-0.617-0.28-0.83s-0.45-0.319-0.789-0.319c-0.322,0-0.571,0.089-0.746,0.266c-0.175,0.178-0.263,0.404-0.263,0.68
				c0,0.247,0.094,0.457,0.282,0.626c0.188,0.17,0.307,0.244,0.74,0.383C2.576,2.737,3.2,3.044,3.496,3.33
				C3.792,3.615,3.94,3.985,3.94,4.439c0,0.479-0.175,0.858-0.526,1.139C3.064,5.859,2.604,6,2.034,6
				C1.479,6,0.993,5.847,0.579,5.537C0.164,5.229-0.036,4.795-0.021,4.233l0.008-0.023H0.82c0,0.398,0.112,0.694,0.335,0.886
				c0.224,0.191,0.517,0.287,0.879,0.287c0.325,0,0.579-0.085,0.763-0.255C2.981,4.96,3.073,4.731,3.073,4.445z"/>
		</g>
		<g>
			<path fill="#7D7D7D" d="M10,3.805C10,4.15,9.973,4.457,9.853,4.73c-0.12,0.272-0.29,0.502-0.509,0.688L8.634,5.818
				C8.463,5.882,8.282,5.926,8.091,5.955C7.901,5.984,7.704,6,7.498,6C6.736,6,6.131,5.807,5.683,5.42
				C5.233,5.035,5.009,4.496,5.009,3.805V2.202c0-0.688,0.226-1.227,0.677-1.618C6.136,0.195,6.741,0,7.498,0
				C8.266,0,8.88,0.195,9.342,0.584C9.803,0.976,10,1.515,10,2.202V3.805z M9.009,2.19c0-0.507-0.145-0.893-0.406-1.155
				C8.343,0.772,7.974,1,7.498,1c-0.469,0-0.829-0.228-1.08,0.035S6.009,1.684,6.009,2.19v1.614c0,0.512,0.16,0.902,0.412,1.166
				C6.672,5.235,7.031,5,7.498,5c0.48,0,0.85,0.236,1.108-0.028c0.259-0.263,0.403-0.652,0.403-1.167V2.19z"/>
		</g>
		<g>
			<path fill="#7D7D7D" d="M12,5.248L14.009,5v1h-3V0H12V5.248z"/>
		</g>
		<rect x="8.009" y="4" opacity="0.59" fill="#7D7D7D" width="1" height="1"/>
		<rect x="9.009" y="5" opacity="0.9" fill="#7D7D7D" width="1" height="1"/>
		<rect x="10.009" y="6" opacity="0.59" fill="#7D7D7D" width="1" height="1"/>
		<rect x="10.009" y="5" opacity="0.29" fill="#7D7D7D" width="1" height="1"/>
		<rect x="9.009" y="6" opacity="0.29" fill="#7D7D7D" width="1" height="1"/>
	</g>
</g>
</svg>
