<?xml version="1.0" encoding="utf-8"?>
<!-- Generator: Adobe Illustrator 15.1.0, SVG Export Plug-In . SVG Version: 6.00 Build 0)  -->
<!DOCTYPE svg PUBLIC "-//W3C//DTD SVG 1.1//EN" "http://www.w3.org/Graphics/SVG/1.1/DTD/svg11.dtd">
<svg version="1.1" xmlns="http://www.w3.org/2000/svg" xmlns:xlink="http://www.w3.org/1999/xlink" x="0px" y="0px"
	 width="16px" height="16px" viewBox="0 0 16 16" enable-background="new 0 0 16 16" xml:space="preserve">
<g>
	<g>
		<path fill="#7D7D7D" d="M11.006,10l0.064-0.065C10.887,9.969,10.701,10,10.508,10C9.832,10,9.205,9.77,8.67,9.387
			C9.494,8.495,10.009,7.312,10.009,6c0-1.312-0.515-2.495-1.338-3.387C9.205,2.231,9.832,2,10.508,2c1.924,0,3.49,1.794,3.49,4
			c0,1.2-0.473,2.266-1.206,3h1.288c0.568-0.837,0.918-1.869,0.918-3c0-2.762-2.01-5-4.49-5c-0.972,0-1.865,0.352-2.6,0.936
			C7.091,1.352,6.099,1,5.019,1C2.263,1,0.03,3.238,0.03,6c0,2.761,2.233,5,4.989,5c1.08,0,2.072-0.352,2.889-0.936
			C8.643,10.648,9.536,11,10.508,11c0.171,0,0.332-0.035,0.498-0.057V10z M5.019,10c-2.2,0-3.989-1.794-3.989-4
			c0-2.206,1.79-4,3.989-4c0.654,0,1.263,0.174,1.808,0.454C5.993,3.313,5.472,4.479,5.472,5.773c0,1.444,0.645,2.733,1.656,3.608
			C6.515,9.768,5.795,10,5.019,10z"/>
	</g>
	<rect x="12.004" y="10" fill="#7D7D7D" width="1.996" height="6"/>
	<rect x="10.009" y="12" fill="#7D7D7D" width="5.987" height="2"/>
</g>
</svg>