<?xml version="1.0" encoding="utf-8"?>
<!-- Generator: Adobe Illustrator 15.1.0, SVG Export Plug-In . SVG Version: 6.00 Build 0)  -->
<!DOCTYPE svg PUBLIC "-//W3C//DTD SVG 1.1//EN" "http://www.w3.org/Graphics/SVG/1.1/DTD/svg11.dtd">
<svg version="1.1" id="Layer_1" xmlns="http://www.w3.org/2000/svg" xmlns:xlink="http://www.w3.org/1999/xlink" x="0px" y="0px"
	 width="16px" height="16px" viewBox="0 0 16 16" enable-background="new 0 0 16 16" xml:space="preserve">
<g>
	<path fill="#7D7D7D" d="M9,11h2V9.571L11.898,9H14V1.857C14,0.832,13.168,0,12.143,0H1.857C0.832,0,0,0.832,0,1.857V12
		c0,1.025,0.832,1.857,1.857,1.857H9V11z M9,4h2l1,1h-2v1h1v1h-1v1h2l-1,1H9V4z M3,8l2-1L3.438,9H2L1,8V5l1-1h1.438L5,6L3,5H2v3H3z
		 M7,5v4H6V5H5V4h3v1H7z"/>
	<polygon fill="#7D7D7D" points="16,12 14,12 14,10 12,10 12,12 10,12 10,14 12,14 12,16 14,16 14,14 16,14 	"/>
</g>
</svg>
