<?xml version="1.0" encoding="utf-8"?>
<!-- Generator: Adobe Illustrator 15.1.0, SVG Export Plug-In . SVG Version: 6.00 Build 0)  -->
<!DOCTYPE svg PUBLIC "-//W3C//DTD SVG 1.1//EN" "http://www.w3.org/Graphics/SVG/1.1/DTD/svg11.dtd">
<svg version="1.1" id="Layer_1" xmlns="http://www.w3.org/2000/svg" xmlns:xlink="http://www.w3.org/1999/xlink" x="0px" y="0px"
	 width="16px" height="16px" viewBox="0 0 16 16" enable-background="new 0 0 16 16" xml:space="preserve">
<g>
	<rect x="1" y="0.25" fill="#E2E2E2" width="9" height="2.75"/>
	<g>
		<path fill="#7D7D7D" d="M10,1v14H1V1H10 M11,0H0v16h11V0L11,0z"/>
	</g>
	<rect x="1" y="1" fill="#7D7D7D" width="9" height="1"/>
	<rect x="3" y="9" opacity="0.33" fill="#7D7D7D" width="1" height="6"/>
	<rect x="7" y="9" opacity="0.33" fill="#7D7D7D" width="1" height="6"/>
	<rect x="3" y="2" opacity="0.33" fill="#7D7D7D" width="1" height="3"/>
	<rect x="6" y="5" opacity="0.33" fill="#7D7D7D" width="1" height="3"/>
	<rect x="7" y="2" opacity="0.33" fill="#7D7D7D" width="1" height="3"/>
	<rect x="7" y="4" fill="#7D7D7D" width="7" height="1"/>
	<rect x="7" y="8" fill="#7D7D7D" width="7" height="1"/>
	<rect x="4" y="4" fill="#7D7D7D" width="1" height="5"/>
	<rect x="3" y="5" fill="#7D7D7D" width="1" height="3"/>
	<rect x="2" y="6" fill="#7D7D7D" width="1" height="1"/>
	<rect x="5" y="5" fill="#7D7D7D" width="1" height="3"/>
	<rect x="14" y="4" fill="#7D7D7D" width="1" height="5"/>
	<rect x="10" y="5" fill="#EEEEEE" width="1" height="3"/>
	<rect x="1" y="11" fill="#7D7D7D" width="9" height="1"/>
	<rect x="6" y="5" fill="#BCBCBC" width="8" height="3"/>
</g>
</svg>
