<?xml version="1.0" encoding="utf-8"?>
<!-- Generator: Adobe Illustrator 15.1.0, SVG Export Plug-In . SVG Version: 6.00 Build 0)  -->
<!DOCTYPE svg PUBLIC "-//W3C//DTD SVG 1.1//EN" "http://www.w3.org/Graphics/SVG/1.1/DTD/svg11.dtd">
<svg version="1.1" id="Layer_1" xmlns="http://www.w3.org/2000/svg" xmlns:xlink="http://www.w3.org/1999/xlink" x="0px" y="0px"
	 width="16px" height="16px" viewBox="0 0 16 16" enable-background="new 0 0 16 16" xml:space="preserve">
<g>
	<g>
		<g>
			<g>
				<rect x="4" y="4" fill="#DDDDDD" width="11" height="11"/>
				<g>
					<path fill="#7D7D7D" d="M14,5v9H5V5H14 M16,3H3v13h13V3L16,3z"/>
				</g>
			</g>
			
				<polyline fill="none" stroke="#939393" stroke-width="2" stroke-linecap="round" stroke-linejoin="round" stroke-miterlimit="10" points="
				7.643,9.538 9.597,11.514 12.358,8.752 			"/>
		</g>
		<rect x="9" y="9" fill="#DDDDDD" width="1" height="1"/>
		<rect x="8" y="8" fill="#DDDDDD" width="1" height="1"/>
	</g>
	<g>
		<g>
			<g>
				<rect x="1" y="1" fill="#DDDDDD" width="11" height="11"/>
				<g>
					<path fill="#7D7D7D" d="M11,2v9H2V2H11 M13,0H0v13h13V0L13,0z"/>
				</g>
			</g>
			
				<polyline fill="none" stroke="#7D7D7D" stroke-width="2" stroke-linecap="round" stroke-linejoin="round" stroke-miterlimit="10" points="
				3.813,5.795 6.476,8.486 10,5 			"/>
		</g>
	</g>
</g>
</svg>
