<?xml version="1.0" encoding="utf-8"?>
<!-- Generator: Adobe Illustrator 15.1.0, SVG Export Plug-In . SVG Version: 6.00 Build 0)  -->
<!DOCTYPE svg PUBLIC "-//W3C//DTD SVG 1.1//EN" "http://www.w3.org/Graphics/SVG/1.1/DTD/svg11.dtd">
<svg version="1.1" id="Layer_1" xmlns="http://www.w3.org/2000/svg" xmlns:xlink="http://www.w3.org/1999/xlink" x="0px" y="0px"
	 width="16px" height="16px" viewBox="0 0 16 16" enable-background="new 0 0 16 16" xml:space="preserve">
<g>
	<polygon opacity="0.61" fill="#7D7D7D" points="11,5 10,4 10,1 11,1 	"/>
	<rect x="11" y="4" opacity="0.61" fill="#7D7D7D" width="3" height="1"/>
	<polygon fill="#7D7D7D" points="11,0 3,0 3,7 4,7 4,1 10.586,1 14,4.414 14,14 9.666,14 9.334,15 15,15 15,4 	"/>
	<g>
		<g>
			<g>
				<path opacity="0.71" fill="#7D7D7D" d="M5.432,15.998l-4.833-4.834L0.6,9.899l2.223-2.223l1.33-0.088L9.566,13l-3,3
					L5.432,15.998z M1.399,10.834L6,15.434L8.434,13L3.845,8.41L3.177,8.455L1.4,10.231L1.399,10.834z"/>
			</g>
		</g>
		
			<rect x="1.818" y="9.197" transform="matrix(-0.7071 0.7071 -0.7071 -0.7071 13.582 15.7677)" fill="#BCBCBC" width="3.414" height="3"/>
	</g>
	<rect x="1" y="11" fill="#7D7D7D" width="1" height="1"/>
	<rect x="2" y="12" fill="#7D7D7D" width="1" height="1"/>
	<rect x="3" y="13" fill="#7D7D7D" width="1" height="1"/>
	<rect x="5" y="15" fill="#7D7D7D" width="1" height="1"/>
	<rect x="6" y="15" fill="#7D7D7D" width="1" height="1"/>
	<rect x="7" y="14" fill="#7D7D7D" width="1" height="1"/>
	<rect x="8" y="13" fill="#7D7D7D" width="1" height="1"/>
	<rect x="8" y="12" fill="#7D7D7D" width="1" height="1"/>
	<rect x="7" y="11" fill="#7D7D7D" width="1" height="1"/>
	<rect x="6" y="10" fill="#7D7D7D" width="1" height="1"/>
	<rect x="5" y="9" fill="#7D7D7D" width="1" height="1"/>
	<rect x="4" y="8" fill="#7D7D7D" width="1" height="1"/>
	<rect x="2" y="8" fill="#7D7D7D" width="1" height="1"/>
	<rect x="1" y="9" fill="#7D7D7D" width="1" height="1"/>
	<rect x="4" y="12" fill="#7D7D7D" width="1" height="1"/>
	<rect x="1" y="10" opacity="0.63" fill="#7D7D7D" width="1" height="1"/>
	<rect x="2" y="9" opacity="0.63" fill="#7D7D7D" width="1" height="1"/>
	<rect x="3" y="8" opacity="0.63" fill="#7D7D7D" width="1" height="1"/>
	<rect x="5" y="11" fill="#7D7D7D" width="1" height="1"/>
</g>
</svg>
