<?xml version="1.0" encoding="utf-8"?>
<!-- Generator: Adobe Illustrator 15.1.0, SVG Export Plug-In . SVG Version: 6.00 Build 0)  -->
<!DOCTYPE svg PUBLIC "-//W3C//DTD SVG 1.1//EN" "http://www.w3.org/Graphics/SVG/1.1/DTD/svg11.dtd">
<svg version="1.1" id="Layer_1" xmlns="http://www.w3.org/2000/svg" xmlns:xlink="http://www.w3.org/1999/xlink" x="0px" y="0px"
	 width="16px" height="16px" viewBox="0 0 16 16" enable-background="new 0 0 16 16" xml:space="preserve">
<path fill="#FFFFFF" d="M13.143,1H3.857C2.832,1,2,1.832,2,2.857v9.285C2,13.168,2.832,14,3.857,14h9.285
	C14.168,14,15,13.168,15,12.143V2.857C15,1.832,14.168,1,13.143,1z M7,8l-1.563,2H4L3,9V6l1-1h1.438L7,7L5,6H4v3h1L7,8z M10,6H9v4H8
	V6H7V5h3V6z M13,7v1h-1v1h2l-1,1h-2V5h2l1,1h-2v1H13z"/>
</svg>
