<?xml version="1.0" encoding="utf-8"?>
<!-- Generator: Adobe Illustrator 15.1.0, SVG Export Plug-In . SVG Version: 6.00 Build 0)  -->
<!DOCTYPE svg PUBLIC "-//W3C//DTD SVG 1.1//EN" "http://www.w3.org/Graphics/SVG/1.1/DTD/svg11.dtd">
<svg version="1.1" id="Layer_1" xmlns="http://www.w3.org/2000/svg" xmlns:xlink="http://www.w3.org/1999/xlink" x="0px" y="0px"
	 width="16px" height="16px" viewBox="0 0 16 16" enable-background="new 0 0 16 16" xml:space="preserve">
<path fill="#7D7D7D" d="M15,4V3c0-1.1-0.9-2-2-2H3C1.9,1,1,1.9,1,3v1c0,0.599,0.821,1.133,1.134,1.5C1.821,5.867,1,6.401,1,7v1
	c0,0.51,0.749,0.973,1,1.328C1.649,9.686,1,10.301,1,11v1c0,1.1,0.9,2,2,2h10c1.1,0,2-0.9,2-2v-1c0-0.621-0.646-1.172-1.096-1.541
	C14.395,9.094,15,8.576,15,8V7c0-0.622-0.646-1.173-1.096-1.541C14.395,5.094,15,4.576,15,4z M13.523,10C14.075,10,14,10.449,14,11
	v1c0,0.553,0.075,1-0.477,1H2.333C1.782,13,2,12.553,2,12v-1c0-0.551-0.218-1,0.333-1H13.523z M13.523,6C14.075,6,14,6.448,14,7v1
	c0,0.552,0.075,1-0.477,1H2.333C1.782,9,2,8.552,2,8V7c0-0.552-0.218-1,0.333-1H13.523z M2.333,5C1.782,5,2,4.552,2,4V3
	c0-0.552-0.218-1,0.333-1h11.19C14.075,2,14,2.448,14,3v1c0,0.552,0.075,1-0.477,1H2.333z"/>
</svg>
