<?xml version="1.0" encoding="utf-8"?>
<!-- Generator: Adobe Illustrator 15.1.0, SVG Export Plug-In . SVG Version: 6.00 Build 0)  -->
<!DOCTYPE svg PUBLIC "-//W3C//DTD SVG 1.1//EN" "http://www.w3.org/Graphics/SVG/1.1/DTD/svg11.dtd">
<svg version="1.1" id="Layer_1" xmlns="http://www.w3.org/2000/svg" xmlns:xlink="http://www.w3.org/1999/xlink" x="0px" y="0px"
	 width="16px" height="16px" viewBox="0 0 16 16" enable-background="new 0 0 16 16" xml:space="preserve">
<g>
	<g>
		
			<rect x="4.899" y="7.07" transform="matrix(0.7071 -0.7071 0.7071 0.7071 -5.5144 7.5856)" fill="#7D7D7D" width="3.001" height="6.758"/>
		<polygon fill="#7D7D7D" points="10.949,15 10.949,15 7.949,14.121 10.07,12 		"/>
		
			<rect x="0.449" y="4.743" transform="matrix(0.7072 -0.707 0.707 0.7072 -3.6711 3.1353)" fill="#7D7D7D" width="3.001" height="2.514"/>
	</g>
	<path fill="#7D7D7D" d="M10.5,0C8.015,0,6,2.015,6,4.5S8.015,9,10.5,9S15,6.985,15,4.5S12.985,0,10.5,0z M13.375,6.574
		l-0.801,0.802L10.5,5.301L8.426,7.376L7.625,6.574L9.699,4.5L7.625,2.426l0.801-0.801L10.5,3.699l2.074-2.074l0.801,0.801
		L11.301,4.5L13.375,6.574z"/>
</g>
</svg>
