<?xml version="1.0" encoding="utf-8"?>
<!-- Generator: Adobe Illustrator 15.1.0, SVG Export Plug-In . SVG Version: 6.00 Build 0)  -->
<!DOCTYPE svg PUBLIC "-//W3C//DTD SVG 1.1//EN" "http://www.w3.org/Graphics/SVG/1.1/DTD/svg11.dtd">
<svg version="1.1" id="Layer_1" xmlns="http://www.w3.org/2000/svg" xmlns:xlink="http://www.w3.org/1999/xlink" x="0px" y="0px"
	 width="16px" height="16px" viewBox="0 0 16 16" enable-background="new 0 0 16 16" xml:space="preserve">
<path fill="#FFFFFF" d="M13.139,1H3.862C2.833,1,2,1.834,2,2.862v9.275C2,13.167,2.833,14,3.862,14h9.276
	C14.167,14,15,13.166,15,12.138V2.862C15,1.833,14.167,1,13.139,1z M9,12H7v-2h2V12z M10.541,7C10.25,7.483,9.08,7.779,9,8
	s0,0.622,0,1H7c0.004-0.619,0,0,0-1s0.504-0.577,1-1c0.256-0.251,1-1,1-1V5L7.938,4.469L7,5c0,0,0.004,0.609,0,1H5
	c0,0,0.487-2.257,1.006-2.725C6.229,3.076,7,3,7,3h0.981h1.018c0,0,0.956,0.12,1.197,0.365C10.718,3.891,11,5,11,5v1
	C11,6,10.81,6.554,10.541,7z"/>
</svg>
