<?xml version="1.0" encoding="utf-8"?>
<!-- Generator: Adobe Illustrator 15.1.0, SVG Export Plug-In . SVG Version: 6.00 Build 0)  -->
<!DOCTYPE svg PUBLIC "-//W3C//DTD SVG 1.1//EN" "http://www.w3.org/Graphics/SVG/1.1/DTD/svg11.dtd">
<svg version="1.1" id="Layer_1" xmlns="http://www.w3.org/2000/svg" xmlns:xlink="http://www.w3.org/1999/xlink" x="0px" y="0px"
	 width="16px" height="16px" viewBox="0 0 16 16" enable-background="new 0 0 16 16" xml:space="preserve">
<g>
	
		<rect x="2.907" y="5.532" transform="matrix(0.7071 -0.7071 0.7071 0.7071 -2.9675 8.1434)" fill="#BCBCBC" stroke="#7D7D7D" stroke-width="0.8" stroke-miterlimit="10" width="10.879" height="4.243"/>
	<g>
		<rect x="8" y="4" fill="#7D7D7D" width="1" height="1"/>
		<rect x="10" y="2" fill="#7D7D7D" width="1" height="1"/>
		<rect x="9" y="3" fill="#7D7D7D" width="1" height="1"/>
		<rect x="11" y="1" fill="#7D7D7D" width="1" height="1"/>
		<rect x="12" fill="#7D7D7D" width="2" height="1"/>
		<rect x="7" y="5" fill="#7D7D7D" width="1" height="1"/>
		<rect x="6" y="6" fill="#7D7D7D" width="1" height="1"/>
		<rect x="5" y="7" fill="#7D7D7D" width="1" height="1"/>
		<rect x="4" y="8" fill="#7D7D7D" width="1" height="1"/>
		<rect x="3" y="9" fill="#7D7D7D" width="1" height="1"/>
		<rect x="3" y="10" fill="#7D7D7D" width="1" height="1"/>
		<rect x="2" y="10" fill="#7D7D7D" width="1" height="3"/>
		<rect x="2" y="13" fill="#7D7D7D" width="1" height="1"/>
		<rect x="1" y="14" fill="#7D7D7D" width="1" height="1"/>
		<polygon opacity="0.6" fill="#7D7D7D" points="2,15 3,15 4,14 2,14 		"/>
		<polygon opacity="0.6" fill="#7D7D7D" points="1,14 2,14 2,12 1,13 		"/>
	</g>
	<g>
		<rect x="13" y="5" fill="#7D7D7D" width="1" height="1"/>
		<rect x="12" y="6" fill="#7D7D7D" width="1" height="1"/>
		<rect x="14" y="4" fill="#7D7D7D" width="1" height="1"/>
		<rect x="14" y="1" fill="#7D7D7D" width="1" height="1"/>
		<rect x="15" y="2" fill="#7D7D7D" width="1" height="2"/>
		<rect x="11" y="7" fill="#7D7D7D" width="1" height="1"/>
		<rect x="10" y="8" fill="#7D7D7D" width="1" height="1"/>
		<rect x="9" y="9" fill="#7D7D7D" width="1" height="1"/>
		<rect x="8" y="10" fill="#7D7D7D" width="1" height="1"/>
		<rect x="7" y="11" fill="#7D7D7D" width="1" height="1"/>
		<rect x="6" y="12" fill="#7D7D7D" width="1" height="1"/>
		<rect x="5" y="12" fill="#7D7D7D" width="1" height="1"/>
		<rect x="5" y="13" fill="#7D7D7D" width="1" height="1"/>
		<rect x="3" y="13" fill="#7D7D7D" width="2" height="1"/>
	</g>
	<g>
		<rect x="11" y="4" fill="#7D7D7D" width="1" height="1"/>
		<rect x="11" y="3" fill="#7D7D7D" width="1" height="1"/>
		<rect x="12" y="4" fill="#7D7D7D" width="1" height="1"/>
		<rect x="10" y="5" fill="#7D7D7D" width="1" height="1"/>
		<rect x="9" y="6" fill="#7D7D7D" width="1" height="1"/>
		<rect x="8" y="7" fill="#7D7D7D" width="1" height="1"/>
		<rect x="7" y="8" fill="#7D7D7D" width="1" height="1"/>
		<rect x="6" y="9" fill="#7D7D7D" width="1" height="1"/>
		<rect x="5" y="10" fill="#7D7D7D" width="1" height="1"/>
		<rect x="4" y="11" fill="#7D7D7D" width="1" height="1"/>
	</g>
</g>
</svg>
