<?xml version="1.0" encoding="utf-8"?>
<!-- Generator: Adobe Illustrator 15.1.0, SVG Export Plug-In . SVG Version: 6.00 Build 0)  -->
<!DOCTYPE svg PUBLIC "-//W3C//DTD SVG 1.1//EN" "http://www.w3.org/Graphics/SVG/1.1/DTD/svg11.dtd">
<svg version="1.1" id="Layer_1" xmlns="http://www.w3.org/2000/svg" xmlns:xlink="http://www.w3.org/1999/xlink" x="0px" y="0px"
	 width="16px" height="16px" viewBox="0 0 16 16" enable-background="new 0 0 16 16" xml:space="preserve">
<g id="Page-1-Copy-4_1_" transform="translate(0.000000, 3.000000)">
	<g id="Stroke-3_1_">
		<g opacity="0.7">
			<path fill="#7D7D7D" d="M6.5,5c0,1.33,0.58,2.521,1.5,3.34C7.21,9.07,6.15,9.5,5,9.5C2.51,9.5,0.5,7.479,0.5,5
				c0-2.49,2.01-4.5,4.5-4.5c1.15,0,2.21,0.43,3,1.16C7.08,2.47,6.5,3.67,6.5,5L6.5,5z"/>
		</g>
		<g>
			<path fill="#7D7D7D" d="M5,10c-2.757,0-5-2.243-5-5s2.243-5,5-5c1.251,0,2.438,0.459,3.339,1.293l0.407,0.376L8.33,2.036
				C7.485,2.779,7,3.86,7,5c0,1.131,0.486,2.212,1.333,2.967l0.412,0.366L8.339,8.707C7.438,9.541,6.251,10,5,10z M5,1
				C2.794,1,1,2.794,1,5c0,2.206,1.794,4,4,4c0.82,0,1.604-0.246,2.254-0.7C6.452,7.395,6,6.221,6,5
				c0-1.229,0.451-2.402,1.252-3.301C6.603,1.245,5.819,1,5,1z"/>
		</g>
	</g>
	<g id="Stroke-7_1_">
		<g opacity="0.7">
			<path fill="#7D7D7D" d="M15.5,5c0,2.479-2.01,4.5-4.5,4.5c-1.15,0-2.21-0.43-3-1.16C8.92,7.521,9.5,6.33,9.5,5S8.92,2.47,8,1.66
				C8.79,0.93,9.85,0.5,11,0.5C13.49,0.5,15.5,2.51,15.5,5L15.5,5z"/>
		</g>
		<g>
			<path fill="#7D7D7D" d="M11,10c-1.252,0-2.438-0.459-3.339-1.293L7.256,8.333l0.412-0.366C8.514,7.212,9,6.131,9,5
				c0-1.14-0.485-2.221-1.33-2.964L7.253,1.669l0.407-0.376C8.563,0.459,9.748,0,11,0c2.757,0,5,2.243,5,5S13.757,10,11,10z
				 M8.746,8.3C9.396,8.754,10.18,9,11,9c2.206,0,4-1.794,4-4c0-2.206-1.794-4-4-4c-0.819,0-1.603,0.245-2.252,0.699
				C9.55,2.598,10,3.771,10,5C10,6.221,9.549,7.395,8.746,8.3z"/>
		</g>
	</g>
	<g id="Stroke-11_1_">
		<g opacity="0.7">
			<path fill="#7D7D7D" d="M9.5,5c0,1.33-0.58,2.521-1.5,3.34C7.08,7.521,6.5,6.33,6.5,5S7.08,2.47,8,1.66C8.92,2.47,9.5,3.67,9.5,5
				L9.5,5z"/>
		</g>
		<g>
			<path fill="#7D7D7D" d="M8,9.01L7.667,8.713C6.608,7.77,6,6.416,6,5c0-1.427,0.608-2.781,1.67-3.715L8,0.994l0.33,0.291
				C9.392,2.219,10,3.573,10,5c0,1.416-0.607,2.77-1.667,3.713L8,9.01z M8,2.363C7.36,3.08,7,4.018,7,5c0,0.974,0.36,1.91,1,2.633
				C8.64,6.91,9,5.974,9,5C9,4.018,8.64,3.08,8,2.363z"/>
		</g>
	</g>
</g>
<g id="cross" transform="translate(0.000000, 9.000000)">
	<path id="Path-Copy" fill="#7D7D7D" d="M5,5v2H2V5H0V2h2V0h3v2h2v3H5z"/>
	<path id="Path" fill="#7D7D7D" d="M6,4L6,4V3H4V1H3v2H1v1h2v2h1V4H6z"/>
</g>
</svg>
