<?xml version="1.0" encoding="utf-8"?>
<!-- Generator: Adobe Illustrator 15.1.0, SVG Export Plug-In . SVG Version: 6.00 Build 0)  -->
<!DOCTYPE svg PUBLIC "-//W3C//DTD SVG 1.1//EN" "http://www.w3.org/Graphics/SVG/1.1/DTD/svg11.dtd">
<svg version="1.1" id="Layer_1" xmlns="http://www.w3.org/2000/svg" xmlns:xlink="http://www.w3.org/1999/xlink" x="0px" y="0px"
	 width="16px" height="16px" viewBox="0 0 16 16" enable-background="new 0 0 16 16" xml:space="preserve">
<g>
	<g>
		<path fill="#7D7D7D" d="M12,7v2H7V7H12 M13,6H6v4h7V6L13,6z"/>
	</g>
	<rect x="7" y="8" fill="#D1D1D1" width="5" height="1"/>
	<rect x="11" y="7" fill="#D1D1D1" width="1" height="1"/>
</g>
<g display="none">
	<rect x="7" y="8" display="inline" fill="#D1D1D1" width="5" height="1"/>
	<rect x="11" y="7" display="inline" fill="#D1D1D1" width="1" height="1"/>
</g>
<path display="none" fill="#7D7D7D" d="M6,6c0,0.448,0.476,1.639,1,2.816V7h5v2H7.083c0.155,0.346,0.312,0.684,0.46,1H13V6H6z"/>
<g display="none">
	<path id="Shape-Copy-18_1_" display="inline" fill="#7D7D7D" d="M8.449,12.666H7.056V11.97H6.011L6.01,11.272H5.104L3.571,9.879
		c-0.231,0.07-0.722,0.139-0.977,0.139c-1.386,0.001-2.509-1.123-2.509-2.509c0-1.385,1.123-2.51,2.51-2.509
		c1.386,0.001,2.508,1.123,2.508,2.509c0,0.255-0.038,0.498-0.108,0.728l3.454,3.455V12.666z M1.654,7.353
		C1.653,7.785,2.006,8.137,2.438,8.136c0.434,0,0.784-0.351,0.784-0.783c0-0.434-0.351-0.784-0.784-0.784
		C2.006,6.568,1.654,6.919,1.654,7.353z"/>
	<rect x="2" y="7" display="inline" fill="#FFFFFF" width="1" height="1"/>
	<rect x="5" y="9" display="inline" fill="#7D7D7D" width="1" height="1"/>
	<rect x="6" y="10" display="inline" opacity="0.3" fill="#7D7D7D" width="1" height="1"/>
	<rect x="7" y="11" display="inline" opacity="0.3" fill="#7D7D7D" width="1" height="1"/>
	<rect x="8" y="12" display="inline" fill="#7D7D7D" width="1" height="1"/>
</g>
</svg>
