<?xml version="1.0" encoding="utf-8"?>
<!-- Generator: Adobe Illustrator 15.1.0, SVG Export Plug-In . SVG Version: 6.00 Build 0)  -->
<!DOCTYPE svg PUBLIC "-//W3C//DTD SVG 1.1//EN" "http://www.w3.org/Graphics/SVG/1.1/DTD/svg11.dtd">
<svg version="1.1" id="Layer_1" xmlns="http://www.w3.org/2000/svg" xmlns:xlink="http://www.w3.org/1999/xlink" x="0px" y="0px"
	 width="16px" height="16px" viewBox="0 0 16 16" enable-background="new 0 0 16 16" xml:space="preserve">
<path fill="#666666" d="M6.05,8.971C5.589,8.917,5.185,8.785,4.86,8.608C4.945,8.258,5,7.89,5,7.5c0-0.388-0.055-0.755-0.139-1.104
	C5.288,6.161,5.846,6,6.5,6C7.973,6,9,6.791,9,7.5C9,7.666,8.939,7.836,8.834,8H9.93C9.976,7.838,10,7.671,10,7.5
	C10,6.119,8.433,5,6.5,5C5.756,5,5.068,5.168,4.501,5.452C4.01,4.575,3.166,4,2,4v7c1.166,0,2.009-0.576,2.501-1.452
	C5.068,9.831,5.756,10,6.5,10c0.302,0,0.59-0.035,0.869-0.087C6.665,9.443,6,9,6,9L6.05,8.971z M11,5
	c-0.452,0-0.879,0.057-1.285,0.144L11,6c1.717,0,3,0.792,3,1.5C14,8.193,12.689,9,11,9S8,8.193,8,7.5
	c0-0.021,0.012-0.043,0.014-0.065L7.085,6.988C7.03,7.154,7,7.325,7,7.5C7,8.881,8.791,10,11,10s4-1.119,4-2.5S13.209,5,11,5z"/>
</svg>
