<?xml version="1.0" encoding="utf-8"?>
<!-- Generator: Adobe Illustrator 15.1.0, SVG Export Plug-In . SVG Version: 6.00 Build 0)  -->
<!DOCTYPE svg PUBLIC "-//W3C//DTD SVG 1.1//EN" "http://www.w3.org/Graphics/SVG/1.1/DTD/svg11.dtd">
<svg version="1.1" id="Layer_1" xmlns="http://www.w3.org/2000/svg" xmlns:xlink="http://www.w3.org/1999/xlink" x="0px" y="0px"
	 width="16px" height="16px" viewBox="0 0 16 16" enable-background="new 0 0 16 16" xml:space="preserve">
<g>
	<path fill="#FFFFFF" d="M2,3.692v7.615C2,12.238,2.762,13,3.692,13h7.615C12.238,13,13,12.238,13,11.308V10.25L12,11l-0.692,0.308
		H3.692L4,4l2-1l0.584-1H3.692C2.762,2,2,2.761,2,3.692z"/>
	<polygon fill="#FFFFFF" points="10,10 10,1 14.621,5.378 	"/>
	<path fill="#FFFFFF" d="M10.379,4C10.379,4,6,4,6,9c0,0,0.152-1.627,2.379-2c0.305-0.051,1.639,0,2,0V4z"/>
</g>
</svg>
