<?xml version="1.0" encoding="utf-8"?>
<!-- Generator: Adobe Illustrator 15.1.0, SVG Export Plug-In . SVG Version: 6.00 Build 0)  -->
<!DOCTYPE svg PUBLIC "-//W3C//DTD SVG 1.1//EN" "http://www.w3.org/Graphics/SVG/1.1/DTD/svg11.dtd">
<svg version="1.1" id="Layer_1" xmlns="http://www.w3.org/2000/svg" xmlns:xlink="http://www.w3.org/1999/xlink" x="0px" y="0px"
	 width="16px" height="16px" viewBox="0 0 16 16" enable-background="new 0 0 16 16" xml:space="preserve">
<g>
	<path fill="#FFFFFF" d="M13,1h-3v2h3v9H4V9H2v3c0,1.1,0.9,2,2,2h9c1.1,0,2-0.9,2-2V3C15,1.9,14.1,1,13,1z"/>
	<polygon fill="#FFFFFF" points="2,1 4,1 4,6 3,7 2,6 	"/>
	<polygon fill="#FFFFFF" points="7,1 2,1 2,3 7,3 8,2 	"/>
	<g>
		<rect x="3" y="2" fill="#FFFFFF" width="1" height="1"/>
		<rect x="4" y="3" fill="#FFFFFF" width="1" height="1"/>
		<rect x="5" y="4" fill="#FFFFFF" width="1" height="1"/>
		<rect x="6" y="5" fill="#FFFFFF" width="1" height="1"/>
		<rect x="7" y="6" fill="#FFFFFF" width="1" height="1"/>
		<rect x="8" y="7" fill="#FFFFFF" width="1" height="1"/>
	</g>
	<g>
		<rect x="3" y="3" fill="#FFFFFF" width="1" height="1"/>
		<rect x="4" y="4" fill="#FFFFFF" width="1" height="1"/>
		<rect x="5" y="5" fill="#FFFFFF" width="1" height="1"/>
		<rect x="6" y="6" fill="#FFFFFF" width="1" height="1"/>
		<rect x="7" y="7" fill="#FFFFFF" width="1" height="1"/>
		<rect x="8" y="8" fill="#FFFFFF" width="1" height="1"/>
	</g>
	<g>
		<rect x="4" y="2" fill="#FFFFFF" width="1" height="1"/>
		<rect x="5" y="3" fill="#FFFFFF" width="1" height="1"/>
		<rect x="6" y="4" fill="#FFFFFF" width="1" height="1"/>
		<rect x="7" y="5" fill="#FFFFFF" width="1" height="1"/>
		<rect x="8" y="6" fill="#FFFFFF" width="1" height="1"/>
		<polygon fill="#FFFFFF" points="10,8 9,9 9,7 10,7 		"/>
	</g>
</g>
</svg>
