<?xml version="1.0" encoding="utf-8"?>
<!-- Generator: Adobe Illustrator 15.1.0, SVG Export Plug-In . SVG Version: 6.00 Build 0)  -->
<!DOCTYPE svg PUBLIC "-//W3C//DTD SVG 1.1//EN" "http://www.w3.org/Graphics/SVG/1.1/DTD/svg11.dtd">
<svg version="1.1" id="Layer_1" xmlns="http://www.w3.org/2000/svg" xmlns:xlink="http://www.w3.org/1999/xlink" x="0px" y="0px"
	 width="16px" height="16px" viewBox="0 0 16 16" enable-background="new 0 0 16 16" xml:space="preserve">
<path id="Shape-Copy-18_2_" fill="#7D7D7D" d="M14,13h-2v-1h-1.5v-1H9.2L7,9C6.67,9.102,5.966,9.2,5.6,9.2C3.611,9.2,2,7.588,2,5.6
	S3.611,2,5.6,2S9.2,3.611,9.2,5.6c0,0.366-0.054,0.715-0.156,1.044L14,11.6V13z M4.25,5.375C4.25,5.996,4.754,6.5,5.375,6.5
	S6.5,5.996,6.5,5.375S5.996,4.25,5.375,4.25S4.25,4.754,4.25,5.375z"/>
</svg>
