<?xml version="1.0" encoding="utf-8"?>
<!-- Generator: Adobe Illustrator 15.1.0, SVG Export Plug-In . SVG Version: 6.00 Build 0)  -->
<!DOCTYPE svg PUBLIC "-//W3C//DTD SVG 1.1//EN" "http://www.w3.org/Graphics/SVG/1.1/DTD/svg11.dtd">
<svg version="1.1" id="Layer_1" xmlns="http://www.w3.org/2000/svg" xmlns:xlink="http://www.w3.org/1999/xlink" x="0px" y="0px"
	 width="16px" height="16px" viewBox="0 0 16 16" enable-background="new 0 0 16 16" xml:space="preserve">
<g>
	<rect x="1" y="4" fill="#E2E2E2" width="7" height="8"/>
	<path fill="#7D7D7D" d="M4.593,12H1v-2h5v0.488c0.286-0.155,0.586-0.264,0.904-0.264H7V10h1v0.719l1-0.494V10V9V7V6V4V3V0H0v3v1v2
		v1v2v1v3h4.18C4.28,12.658,4.418,12.322,4.593,12z M1,1h5v1h1V1h1v2H1V1z M1,4h5v1h1V4h1v2H1V4z M1,7h5v1h1V7h1v2H1V7z"/>
	<rect x="10" y="11" fill="#7D7D7D" width="5" height="1"/>
	<rect x="6" y="15" fill="#7D7D7D" width="5" height="1"/>
	<rect x="15" y="12" fill="#7D7D7D" width="1" height="3"/>
	<polygon fill="#7D7D7D" points="14,16 15,16 15,15 12,15 	"/>
	<polygon fill="#7D7D7D" points="6,12 9,12 7,11 6,11 	"/>
	<polygon fill="#7D7D7D" points="10,12 9,11 9,14 10,15 	"/>
	<polygon fill="#7D7D7D" points="12,14 11,12 11,15 12,16 	"/>
	<rect x="5" y="12" fill="#7D7D7D" width="1" height="3"/>
	<rect x="5" y="11" opacity="0.46" fill="#7D7D7D" width="2" height="5"/>
	<rect x="14" y="11" opacity="0.46" fill="#7D7D7D" width="2" height="5"/>
	<rect x="10" y="12" opacity="0.36" fill="#7D7D7D" width="1" height="3"/>
</g>
</svg>
