<?xml version="1.0" encoding="utf-8"?>
<!-- Generator: Adobe Illustrator 15.1.0, SVG Export Plug-In . SVG Version: 6.00 Build 0)  -->
<!DOCTYPE svg PUBLIC "-//W3C//DTD SVG 1.1//EN" "http://www.w3.org/Graphics/SVG/1.1/DTD/svg11.dtd">
<svg version="1.1" id="Layer_1" xmlns="http://www.w3.org/2000/svg" xmlns:xlink="http://www.w3.org/1999/xlink" x="0px" y="0px"
	 width="16px" height="16px" viewBox="0 0 16 16" enable-background="new 0 0 16 16" xml:space="preserve">
<polygon fill="#7D7D7D" points="16,12 14,12 14,10 12,10 12,12 10,12 10,14 12,14 12,16 14,16 14,14 16,14 "/>
<g>
	<path fill="#7D7D7D" d="M11,11V9h3V1.862C14,0.833,13.167,0,12.139,0H1.862C0.833,0,0,0.834,0,1.862v9.275
		C0,12.167,0.833,14,1.862,14H9v-3H11z M8,12H6v-2h2V12z M8,7C7.92,7.221,8,8.622,8,9H6c0.004-0.619,0-1,0-2s0.504-0.577,1-1
		c0.256-0.251,1-1,1-1V4L6.938,3.469L6,4c0,0,0.004,0.609,0,1H4c0,0,0.487-2.257,1.006-2.725C5.229,2.076,6,2,6,2h0.981h1.018
		c0,0,0.956,0.12,1.197,0.365C9.718,2.891,10,4,10,4v1c0,0-0.19,0.554-0.459,1C9.25,6.483,8.08,6.779,8,7z"/>
</g>
</svg>
