<?xml version="1.0" encoding="utf-8"?>
<!-- Generator: Adobe Illustrator 15.1.0, SVG Export Plug-In . SVG Version: 6.00 Build 0)  -->
<!DOCTYPE svg PUBLIC "-//W3C//DTD SVG 1.1//EN" "http://www.w3.org/Graphics/SVG/1.1/DTD/svg11.dtd">
<svg version="1.1" id="Layer_1" xmlns="http://www.w3.org/2000/svg" xmlns:xlink="http://www.w3.org/1999/xlink" x="0px" y="0px"
	 width="16px" height="16px" viewBox="0 0 16 16" enable-background="new 0 0 16 16" xml:space="preserve">
<g>
	<g>
		<polygon fill="#7D7D7D" points="15,2 7,2 7,1 14,1 		"/>
		<rect x="14" y="2" fill="#7D7D7D" width="1" height="1"/>
	</g>
	<rect x="8" y="2" fill="#BCBCBC" width="6" height="1"/>
	<g>
		<polygon fill="#7D7D7D" points="6,12 1.414,12 1,11.586 1,1.414 1.414,1 6.586,1 7,1.414 7,3 7,4 8,4 14,4 14,6 14,9.094 
			15,9.094 15,3 8,3 8,1 7,0 1,0 0,1 0,12 1,13 6.5,13 		"/>
		<polygon fill="#7D7D7D" points="16,10 13,10 13,7 10,7 10,10 7,10 7,13 10,13 10,16 13,16 13,13 16,13 		"/>
	</g>
</g>
</svg>
