<?xml version="1.0" encoding="utf-8"?>
<!-- Generator: Adobe Illustrator 15.1.0, SVG Export Plug-In . SVG Version: 6.00 Build 0)  -->
<!DOCTYPE svg PUBLIC "-//W3C//DTD SVG 1.1//EN" "http://www.w3.org/Graphics/SVG/1.1/DTD/svg11.dtd">
<svg version="1.1" id="Layer_1" xmlns="http://www.w3.org/2000/svg" xmlns:xlink="http://www.w3.org/1999/xlink" x="0px" y="0px"
	 width="16px" height="16px" viewBox="0 0 16 16" enable-background="new 0 0 16 16" xml:space="preserve">
<g>
	<rect x="1" y="3" fill="#E2E2E2" width="15" height="1"/>
	<rect x="4" y="3" fill="#AFAFAF" width="9" height="1"/>
	<g>
		<rect x="9" y="5" fill="#E2E2E2" width="4" height="9"/>
		<rect x="3" y="5" fill="#E2E2E2" width="4" height="9"/>
	</g>
	<g>
		<path fill="#7D7D7D" d="M13,5v9H3V5H13 M14,4H2v11h12V4L14,4z"/>
	</g>
	<rect x="5" y="2" fill="#7D7D7D" width="6" height="1"/>
	<rect x="3" y="3" fill="#7D7D7D" width="1" height="1"/>
	<rect x="4" y="2" fill="#7D7D7D" width="1" height="1"/>
	<rect x="12" y="3" fill="#7D7D7D" width="1" height="1"/>
	<rect x="11" y="2" fill="#7D7D7D" width="1" height="1"/>
	<rect x="14" y="4" fill="#7D7D7D" width="2" height="1"/>
	<rect y="4" fill="#7D7D7D" width="2" height="1"/>
	<rect x="1" y="2" fill="#7D7D7D" width="3" height="1"/>
	<rect y="3" fill="#7D7D7D" width="1" height="1"/>
	<rect x="15" y="3" fill="#7D7D7D" width="1" height="1"/>
	<rect x="12" y="2" fill="#7D7D7D" width="3" height="1"/>
	<rect x="6" y="5" fill="#7D7D7D" width="1" height="10"/>
	<rect x="9" y="5" fill="#7D7D7D" width="1" height="10"/>
</g>
</svg>
