<?xml version="1.0" encoding="utf-8"?>
<!-- Generator: Adobe Illustrator 15.1.0, SVG Export Plug-In . SVG Version: 6.00 Build 0)  -->
<!DOCTYPE svg PUBLIC "-//W3C//DTD SVG 1.1//EN" "http://www.w3.org/Graphics/SVG/1.1/DTD/svg11.dtd">
<svg version="1.1" id="Layer_1" xmlns="http://www.w3.org/2000/svg" xmlns:xlink="http://www.w3.org/1999/xlink" x="0px" y="0px"
	 width="16px" height="16px" viewBox="0 0 16 16" enable-background="new 0 0 16 16" xml:space="preserve">
<g>
	<g>
		<polygon fill="#FFFFFF" points="6,8 2,8 1,7 6,7 		"/>
		<rect x="6" y="4" fill="#FFFFFF" width="1" height="7"/>
		<polygon fill="#FFFFFF" points="14,9.6 13,11 13,4 14,5.4 		"/>
		<rect x="7" y="4" fill="#FFFFFF" width="1" height="1"/>
		<polygon fill="#FFFFFF" points="12,4 8,5 8,6 10,6 		"/>
		<rect x="12" y="4" fill="#FFFFFF" width="1" height="1"/>
		<rect x="7" y="10" fill="#FFFFFF" width="1" height="1"/>
		<polygon fill="#FFFFFF" points="12,11 8,10 8,9 10,9 		"/>
		<rect x="12" y="10" fill="#FFFFFF" width="1" height="1"/>
	</g>
	<polygon opacity="0.22" fill="#FFFFFF" points="7,5 8,5 9,6 11,4 13,4 14,6 14,9 13,11 11,11 9,9 8,10 7,10 	"/>
</g>
</svg>
