<?xml version="1.0" encoding="utf-8"?>
<!-- Generator: Adobe Illustrator 15.1.0, SVG Export Plug-In . SVG Version: 6.00 Build 0)  -->
<!DOCTYPE svg PUBLIC "-//W3C//DTD SVG 1.1//EN" "http://www.w3.org/Graphics/SVG/1.1/DTD/svg11.dtd">
<svg version="1.1" id="Layer_1" xmlns="http://www.w3.org/2000/svg" xmlns:xlink="http://www.w3.org/1999/xlink" x="0px" y="0px"
	 width="16px" height="16px" viewBox="0 0 16 16" enable-background="new 0 0 16 16" xml:space="preserve">
<g>
	<path fill="#666666" d="M5,9V8.967C4.84,8.987,4.674,9,4.5,9C3.027,9,2,8.209,2,7.5S3.027,6,4.5,6C4.674,6,4.84,6.013,5,6.033V6
		l2.284,0.295C6.645,5.691,5.641,5,4.5,5C2.567,5,1,6.119,1,7.5C1,8.88,2.567,10,4.5,10c1.141,0,2.145-0.707,2.784-1.312L5,9z"/>
	<path fill="#666666" d="M11.5,5c-1.141,0-2.145,0.691-2.784,1.295L11,6v0.033C11.16,6.013,11.326,6,11.5,6
		C12.973,6,14,6.791,14,7.5S12.973,9,11.5,9c-0.174,0-0.34-0.013-0.5-0.033V9L8.716,8.688C9.355,9.293,10.359,10,11.5,10
		c1.933,0,3.5-1.12,3.5-2.5C15,6.119,13.433,5,11.5,5z"/>
</g>
<rect x="5" y="7" fill="#666666" width="6" height="1"/>
</svg>
