<?xml version="1.0" encoding="utf-8"?>
<!-- Generator: Adobe Illustrator 15.1.0, SVG Export Plug-In . SVG Version: 6.00 Build 0)  -->
<!DOCTYPE svg PUBLIC "-//W3C//DTD SVG 1.1//EN" "http://www.w3.org/Graphics/SVG/1.1/DTD/svg11.dtd">
<svg version="1.1" id="Layer_1" xmlns="http://www.w3.org/2000/svg" xmlns:xlink="http://www.w3.org/1999/xlink" x="0px" y="0px"
	 width="16px" height="16px" viewBox="0 0 16 16" enable-background="new 0 0 16 16" xml:space="preserve">
<path fill="#7D7D7D" d="M5.526,9c0.128-0.351,0.288-0.685,0.478-1H5V6h3v0.005c0.877-0.528,1.901-0.838,3-0.838
	c0.703,0,1.375,0.131,2,0.359V0H0v12h5.259c-0.057-0.325-0.092-0.658-0.092-1H5V9H5.526z M8,5H5V3h3V5z M12,5H9V3h3V5z M4,11H1V9h3
	V11z M4,8H1V6h3V8z M4,5H1V3h3V5z M1,2V1h11v1H1z M15.899,12C15.965,11.677,16,11.342,16,11c0-0.343-0.035-0.677-0.101-1h-2.04
	c-0.037-0.108-0.079-0.214-0.129-0.316l1.438-1.438c-0.371-0.563-0.852-1.043-1.414-1.414L12.316,8.27
	C12.214,8.22,12.108,8.178,12,8.141v-2.04C11.677,6.035,11.343,6,11,6s-0.677,0.035-1,0.101v2.04C9.892,8.178,9.786,8.22,9.684,8.27
	L8.246,6.832C7.684,7.203,7.203,7.685,6.831,8.246l1.438,1.438C8.22,9.786,8.178,9.892,8.14,10h-2.04C6.035,10.324,6,10.658,6,11
	c0,0.343,0.035,0.678,0.101,1h2.04c0.038,0.109,0.08,0.215,0.129,0.316l-1.438,1.438c0.372,0.562,0.853,1.042,1.414,1.414
	l1.438-1.438c0.104,0.05,0.209,0.092,0.316,0.129v2.04C10.324,15.965,10.658,16,11,16c0.343,0,0.678-0.035,1-0.101v-2.04
	c0.109-0.038,0.215-0.08,0.316-0.129l1.438,1.438c0.562-0.371,1.042-0.853,1.414-1.414l-1.438-1.438
	c0.05-0.103,0.091-0.208,0.129-0.316H15.899z M11,12.725c-0.953,0-1.725-0.771-1.725-1.725S10.047,9.275,11,9.275
	s1.725,0.771,1.725,1.725S11.953,12.725,11,12.725z"/>
</svg>
