<?xml version="1.0" encoding="utf-8"?>
<!-- Generator: Adobe Illustrator 15.1.0, SVG Export Plug-In . SVG Version: 6.00 Build 0)  -->
<!DOCTYPE svg PUBLIC "-//W3C//DTD SVG 1.1//EN" "http://www.w3.org/Graphics/SVG/1.1/DTD/svg11.dtd">
<svg version="1.1" id="Layer_1" xmlns="http://www.w3.org/2000/svg" xmlns:xlink="http://www.w3.org/1999/xlink" x="0px" y="0px"
	 width="16px" height="16px" viewBox="0 0 16 16" enable-background="new 0 0 16 16" xml:space="preserve">
<g>
	<rect x="1" y="2.25" fill="#E2E2E2" width="11" height="2.75"/>
	<g>
		<path fill="#7D7D7D" d="M9,13v-2v-1V8.746V8h0.436c0.199-0.309,0.473-0.69,0.777-1H9V5h3v1.076c0.344-0.061,0.682,0.174,1,0.174V2
			H0v12h11.625L11,13H9z M1,3h11v1H1V3z M4,13H1v-2h3V13z M4,10H1V8h3V10z M4,7H1V5h3V7z M8,13H5v-2h3V13z M8,10H5V8h3V10z M8,7H5V5
			h3V7z"/>
	</g>
	<path fill="#7D7D7D" d="M15.217,7.693C14.695,7.166,13.979,7,13.067,7c-0.843,0-1.524,0.137-2.044,0.604
		C10.504,8.071,9.986,9.103,10,10h1h1c0.004-0.392,0-1,0-1s0.826-0.531,1.067-0.531c0.314,0,0.558,0.123,0.728,0.369
		c0.172,0.246,0.257,0.579,0.257,0.998c0,0.392,0.099,0.86-0.052,1.164c-0.15,0.303-1,0-1,0l-1,1c0,0,0.004,0.38,0,1h2
		c0-0.378,1.92-1.778,2-2c0.08-0.221,0-0.602,0-1.171C16,8.932,15.738,8.219,15.217,7.693z M12.079,16H14v-2h-2L12.079,16z"/>
</g>
</svg>
