<?xml version="1.0" encoding="utf-8"?>
<!-- Generator: Adobe Illustrator 15.1.0, SVG Export Plug-In . SVG Version: 6.00 Build 0)  -->
<!DOCTYPE svg PUBLIC "-//W3C//DTD SVG 1.1//EN" "http://www.w3.org/Graphics/SVG/1.1/DTD/svg11.dtd">
<svg version="1.1" id="Layer_1" xmlns="http://www.w3.org/2000/svg" xmlns:xlink="http://www.w3.org/1999/xlink" x="0px" y="0px"
	 width="24px" height="24px" viewBox="0 0 24 24" enable-background="new 0 0 24 24" xml:space="preserve">
<g>
	<path fill="#FFFFFF" d="M10.542,4.943c2.886-0.394,5.609,0.807,6.293,1.833l0.189,0.199L14,10h8V2l-3.002,3.002
		c-1.574-2.06-5.367-3.297-8.828-2.834C7.811,2.483,3.57,3.864,1.672,9.558l2.656,0.885C5.674,6.404,8.45,5.223,10.542,4.943z"/>
	<path fill="#FFFFFF" d="M19.672,13.558c-1.346,4.038-4.122,5.22-6.214,5.499c-2.183,0.298-4.271-0.316-5.455-1.077
		c-0.185-0.118-0.619-0.526-1.038-0.944L10,14H2v8l3.01-3.01c1.35,1.77,4.328,2.939,7.338,2.939c0.496,0,0.991-0.032,1.481-0.098
		c2.359-0.315,6.6-1.696,8.498-7.39L19.672,13.558z"/>
</g>
</svg>
