<?xml version="1.0" encoding="utf-8"?>
<!-- Generator: Adobe Illustrator 15.1.0, SVG Export Plug-In . SVG Version: 6.00 Build 0)  -->
<!DOCTYPE svg PUBLIC "-//W3C//DTD SVG 1.1//EN" "http://www.w3.org/Graphics/SVG/1.1/DTD/svg11.dtd">
<svg version="1.1" id="Layer_1" xmlns="http://www.w3.org/2000/svg" xmlns:xlink="http://www.w3.org/1999/xlink" x="0px" y="0px"
	 width="16px" height="16px" viewBox="0 0 16 16" enable-background="new 0 0 16 16" xml:space="preserve">
<g>
	<g>
		<path fill="#BCBCBC" d="M1,13.5c-0.276,0-0.5-0.225-0.5-0.5V1c0-0.276,0.224-0.5,0.5-0.5h12c0.275,0,0.5,0.224,0.5,0.5v12
			c0,0.275-0.225,0.5-0.5,0.5H1z"/>
	</g>
	<g>
		<rect x="2.5" y="6.5" fill="#DDDDDD" width="9" height="7"/>
	</g>
	<g>
		<rect x="3.5" y="0.5" fill="#DDDDDD" width="7" height="4"/>
	</g>
	<path fill="#7D7D7D" d="M13,0H1C0.45,0,0,0.45,0,1v12c0,0.55,0.45,1,1,1h12c0.55,0,1-0.45,1-1V1C14,0.45,13.55,0,13,0z M7,1v2h2V1
		h1v3H4V1H7z M3,13V7h8v6H3z M13,13h-1V6H2v7H1V1h2v4h8V1h2V13z"/>
	<rect x="4" y="8" fill="#BCBCBC" width="6" height="1"/>
	<rect x="4" y="10" fill="#BCBCBC" width="6" height="1"/>
</g>
</svg>
