<?xml version="1.0" encoding="utf-8"?>
<!-- Generator: Adobe Illustrator 15.1.0, SVG Export Plug-In . SVG Version: 6.00 Build 0)  -->
<!DOCTYPE svg PUBLIC "-//W3C//DTD SVG 1.1//EN" "http://www.w3.org/Graphics/SVG/1.1/DTD/svg11.dtd">
<svg version="1.1" id="Layer_1" xmlns="http://www.w3.org/2000/svg" xmlns:xlink="http://www.w3.org/1999/xlink" x="0px" y="0px"
	 width="16px" height="16px" viewBox="0 0 16 16" enable-background="new 0 0 16 16" xml:space="preserve">
<g>
	<g>
		<path fill="#7D7D7D" d="M11,1v10H1V1H11 M12,0H0v12h12V0L12,0z"/>
		<rect x="1" y="2" fill="#7D7D7D" width="10" height="1"/>
		<rect x="5" y="3" opacity="0.44" fill="#7D7D7D" width="1" height="9"/>
		<rect x="1" y="5" opacity="0.44" fill="#7D7D7D" width="11" height="1"/>
		<rect x="1" y="8" opacity="0.44" fill="#7D7D7D" width="11" height="1"/>
	</g>
	<rect x="13" y="2" fill="#7D7D7D" width="1" height="12"/>
	<rect x="2" y="13" fill="#7D7D7D" width="12" height="1"/>
	<rect x="4" y="15" opacity="0.75" fill="#7D7D7D" width="12" height="1"/>
	<rect x="2" y="12" opacity="0.4" fill="#7D7D7D" width="1" height="1"/>
	<rect x="7" y="12" opacity="0.4" fill="#7D7D7D" width="1" height="1"/>
	<rect x="12" y="10" opacity="0.4" fill="#7D7D7D" width="1" height="1"/>
	<rect x="12" y="7" opacity="0.4" fill="#7D7D7D" width="1" height="1"/>
	<rect x="12" y="4" opacity="0.4" fill="#7D7D7D" width="1" height="1"/>
	<rect x="12" y="2" opacity="0.65" fill="#7D7D7D" width="1" height="1"/>
	<rect x="14" y="4" opacity="0.4" fill="#7D7D7D" width="1" height="1"/>
	<rect x="4" y="14" opacity="0.4" fill="#7D7D7D" width="1" height="1"/>
	<rect x="9" y="14" opacity="0.4" fill="#7D7D7D" width="1" height="1"/>
	<rect x="15" y="4.375" opacity="0.75" fill="#7D7D7D" width="1" height="11.25"/>
	<rect x="1" y="1" fill="#E2E2E2" width="10" height="1"/>
</g>
</svg>
