<?xml version="1.0" encoding="utf-8"?>
<!-- Generator: Adobe Illustrator 15.1.0, SVG Export Plug-In . SVG Version: 6.00 Build 0)  -->
<!DOCTYPE svg PUBLIC "-//W3C//DTD SVG 1.1//EN" "http://www.w3.org/Graphics/SVG/1.1/DTD/svg11.dtd">
<svg version="1.1" id="Layer_1" xmlns="http://www.w3.org/2000/svg" xmlns:xlink="http://www.w3.org/1999/xlink" x="0px" y="0px"
	 width="16px" height="16px" viewBox="0 0 16 16" enable-background="new 0 0 16 16" xml:space="preserve">
<path fill="#7D7D7D" d="M15.924,14.04l-3.703-3.704c0.697-1.054,1.105-2.314,1.105-3.673C13.326,2.983,10.344,0,6.663,0
	C2.983,0,0,2.983,0,6.663s2.983,6.663,6.663,6.663c1.358,0,2.619-0.408,3.673-1.105l3.704,3.704L15.924,14.04z M2.665,6.663
	c0-2.208,1.789-3.998,3.998-3.998c2.208,0,3.998,1.79,3.998,3.998c0,2.207-1.79,3.998-3.998,3.998
	C4.454,10.661,2.665,8.87,2.665,6.663z"/>
</svg>
