<?xml version="1.0" encoding="utf-8"?>
<!-- Generator: Adobe Illustrator 15.1.0, SVG Export Plug-In . SVG Version: 6.00 Build 0)  -->
<!DOCTYPE svg PUBLIC "-//W3C//DTD SVG 1.1//EN" "http://www.w3.org/Graphics/SVG/1.1/DTD/svg11.dtd">
<svg version="1.1" id="Layer_1" xmlns="http://www.w3.org/2000/svg" xmlns:xlink="http://www.w3.org/1999/xlink" x="0px" y="0px"
	 width="16px" height="16px" viewBox="0 0 16 16" enable-background="new 0 0 16 16" xml:space="preserve">
<g>
	<path fill="#FFFFFF" d="M2,3v3h2V3h9v9h-3v2h3c1.1,0,2-0.9,2-2V3c0-1.1-0.9-2-2-2H4C2.9,1,2,1.9,2,3z"/>
	<polygon fill="#FFFFFF" points="2,14 2,12 7,12 8,13 7,14 	"/>
	<polygon fill="#FFFFFF" points="2,9 2,14 4,14 4,9 3,8 	"/>
	<g>
		<rect x="3" y="12" fill="#FFFFFF" width="1" height="1"/>
		<rect x="4" y="11" fill="#FFFFFF" width="1" height="1"/>
		<rect x="5" y="10" fill="#FFFFFF" width="1" height="1"/>
		<rect x="6" y="9" fill="#FFFFFF" width="1" height="1"/>
		<rect x="7" y="8" fill="#FFFFFF" width="1" height="1"/>
		<rect x="8" y="7" fill="#FFFFFF" width="1" height="1"/>
	</g>
	<g>
		<rect x="4" y="12" fill="#FFFFFF" width="1" height="1"/>
		<rect x="5" y="11" fill="#FFFFFF" width="1" height="1"/>
		<rect x="6" y="10" fill="#FFFFFF" width="1" height="1"/>
		<rect x="7" y="9" fill="#FFFFFF" width="1" height="1"/>
		<rect x="8" y="8" fill="#FFFFFF" width="1" height="1"/>
		<rect x="9" y="7" fill="#FFFFFF" width="1" height="1"/>
	</g>
	<g>
		<rect x="3" y="11" fill="#FFFFFF" width="1" height="1"/>
		<rect x="4" y="10" fill="#FFFFFF" width="1" height="1"/>
		<rect x="5" y="9" fill="#FFFFFF" width="1" height="1"/>
		<rect x="6" y="8" fill="#FFFFFF" width="1" height="1"/>
		<rect x="7" y="7" fill="#FFFFFF" width="1" height="1"/>
		<polygon fill="#FFFFFF" points="9,6 10,7 8,7 8,6 		"/>
	</g>
</g>
</svg>
