<?xml version="1.0" encoding="utf-8"?>
<!-- Generator: Adobe Illustrator 15.1.0, SVG Export Plug-In . SVG Version: 6.00 Build 0)  -->
<!DOCTYPE svg PUBLIC "-//W3C//DTD SVG 1.1//EN" "http://www.w3.org/Graphics/SVG/1.1/DTD/svg11.dtd">
<svg version="1.1" id="Layer_1" xmlns="http://www.w3.org/2000/svg" xmlns:xlink="http://www.w3.org/1999/xlink" x="0px" y="0px"
	 width="16px" height="16px" viewBox="0 0 16 16" enable-background="new 0 0 16 16" xml:space="preserve">
<g>
	<g>
		<g>
			<g>
				<g>
					<rect x="0.5" y="0.5" fill="#DDDDDD" width="6" height="6"/>
					<g>
						<path fill="#7D7D7D" d="M6,1v5H1V1H6 M7,0H0v7h7V0L7,0z"/>
					</g>
				</g>
				<polyline fill="none" stroke="#7D7D7D" stroke-linecap="round" stroke-linejoin="round" stroke-miterlimit="10" points="
					2.053,3.12 3.487,4.569 5.385,2.692 				"/>
			</g>
		</g>
	</g>
	<g>
		<g>
			<g>
				<g>
					<rect x="0.5" y="8.5" fill="#DDDDDD" width="6" height="6"/>
					<g>
						<path fill="#7D7D7D" d="M6,9v5H1V9H6 M7,8H0v7h7V8L7,8z"/>
					</g>
				</g>
				<polyline fill="none" stroke="#7D7D7D" stroke-linecap="round" stroke-linejoin="round" stroke-miterlimit="10" points="
					2.053,11.12 3.487,12.569 5.385,10.692 				"/>
			</g>
		</g>
	</g>
	<rect x="8" y="3" fill="#7D7D7D" width="8" height="1"/>
	<rect x="8" y="11" fill="#7D7D7D" width="8" height="1"/>
</g>
</svg>
