<?xml version="1.0" encoding="utf-8"?>
<!-- Generator: Adobe Illustrator 15.1.0, SVG Export Plug-In . SVG Version: 6.00 Build 0)  -->
<!DOCTYPE svg PUBLIC "-//W3C//DTD SVG 1.1//EN" "http://www.w3.org/Graphics/SVG/1.1/DTD/svg11.dtd">
<svg version="1.1" id="Layer_1" xmlns="http://www.w3.org/2000/svg" xmlns:xlink="http://www.w3.org/1999/xlink" x="0px" y="0px"
	 width="16px" height="16px" viewBox="0 0 16 16" enable-background="new 0 0 16 16" xml:space="preserve">
<path fill="#7D7D7D" d="M13.143,1H3.857C2.832,1,2,1.832,2,2.857v9.285C2,13.168,2.832,14,3.857,14h9.285
	C14.168,14,15,13.168,15,12.143V2.857C15,1.832,14.168,1,13.143,1z M7,11H5V6H4V5h1V4c0,0,0-2,2-2c1,0,2,0,2,0v1H8L7,4v1h2v1H7V11z
	 M12.531,12H11l-0.5-1.294l-0.879,1.231L7,12l2.773-2.472L8,8l0,0l0.188-1H10l0.656,1.144L11.742,7H14l-2.629,2.6L13,11l0,0
	L12.531,12z"/>
</svg>
