<?xml version="1.0" encoding="utf-8"?>
<!-- Generator: Adobe Illustrator 15.1.0, SVG Export Plug-In . SVG Version: 6.00 Build 0)  -->
<!DOCTYPE svg PUBLIC "-//W3C//DTD SVG 1.1//EN" "http://www.w3.org/Graphics/SVG/1.1/DTD/svg11.dtd">
<svg version="1.1" id="Layer_1" xmlns="http://www.w3.org/2000/svg" xmlns:xlink="http://www.w3.org/1999/xlink" x="0px" y="0px"
	 width="16px" height="16px" viewBox="0 0 16 16" enable-background="new 0 0 16 16" xml:space="preserve">
<g>
	<path fill="#7D7D7D" d="M7,2c0,0.55-0.45,1-1,1H1C0.45,3,0,2.55,0,2V1c0-0.55,0.45-1,1-1h5c0.55,0,1,0.45,1,1V2z"/>
	<path fill="#7D7D7D" d="M16,7c0,0.55-0.45,1-1,1h-4c-0.55,0-1-0.45-1-1V6c0-0.55,0.45-1,1-1h4c0.55,0,1,0.45,1,1V7z"/>
	<path fill="#7D7D7D" d="M16,11c0,0.55-0.45,1-1,1h-4c-0.55,0-1-0.45-1-1v-1c0-0.55,0.45-1,1-1h4c0.55,0,1,0.45,1,1V11z"/>
	<path fill="#7D7D7D" d="M16,15c0,0.55-0.45,1-1,1h-4c-0.55,0-1-0.45-1-1v-1c0-0.55,0.45-1,1-1h4c0.55,0,1,0.45,1,1V15z"/>
	<polygon fill="#7D7D7D" points="4,14 3,14 3,4 4,3 	"/>
	<polygon fill="#7D7D7D" points="10,7 4,7 5,6 9,6 	"/>
	<polygon fill="#7D7D7D" points="10,11 4,11 5,10 9,10 	"/>
	<polygon fill="#7D7D7D" points="10,15 4,15 3,14 9,14 	"/>
</g>
</svg>
