<?xml version="1.0" encoding="utf-8"?>
<!-- Generator: Adobe Illustrator 15.1.0, SVG Export Plug-In . SVG Version: 6.00 Build 0)  -->
<!DOCTYPE svg PUBLIC "-//W3C//DTD SVG 1.1//EN" "http://www.w3.org/Graphics/SVG/1.1/DTD/svg11.dtd">
<svg version="1.1" id="Layer_1" xmlns="http://www.w3.org/2000/svg" xmlns:xlink="http://www.w3.org/1999/xlink" x="0px" y="0px"
	 width="16px" height="16px" viewBox="0 0 16 16" enable-background="new 0 0 16 16" xml:space="preserve">
<g>
	<path fill="#7D7D7D" d="M9.333,10H9V8h0.333V7H9V5h0.333V4H1V3h8.333V2.8L9.732,2H0v12h4h1h3h1h4v-3v-0.2H9.333V10z M4,13H1v-2h3
		V13z M4,10H1V8h3V10z M4,7H1V5h3V7z M8,13H5v-2h3V13z M8,10H5V8h3V10z M8,7H5V5h3V7z M12,11v2H9v-2H12z"/>
	<path fill="#7D7D7D" d="M14,0h-3l-1,2v8h5V2L14,0z M13,2h-1V1h1V2z"/>
</g>
</svg>
