<?xml version="1.0" encoding="utf-8"?>
<!-- Generator: Adobe Illustrator 15.1.0, SVG Export Plug-In . SVG Version: 6.00 Build 0)  -->
<!DOCTYPE svg PUBLIC "-//W3C//DTD SVG 1.1//EN" "http://www.w3.org/Graphics/SVG/1.1/DTD/svg11.dtd">
<svg version="1.1" id="Layer_1" xmlns="http://www.w3.org/2000/svg" xmlns:xlink="http://www.w3.org/1999/xlink" x="0px" y="0px"
	 width="16px" height="16px" viewBox="0 0 16 16" enable-background="new 0 0 16 16" xml:space="preserve">
<g>
	<rect x="1" y="2.25" fill="#E2E2E2" width="11" height="2.75"/>
	<rect x="1" y="4.25" display="none" fill="#E2E2E2" width="3" height="8.75"/>
	<g>
		<path fill="#7D7D7D" d="M12,3v10H1V3H12 M13,2H0v12h13V2L13,2z"/>
	</g>
	<g display="none" opacity="0.44">
		<path display="inline" fill="#7D7D7D" d="M14,1v14H0V1H14 M15,0H-1v16h16V0L15,0z"/>
	</g>
	<rect x="1" y="4" fill="#7D7D7D" width="11" height="1"/>
	<rect x="4" y="5" fill="#7D7D7D" width="1" height="8"/>
	<rect x="8" y="5" fill="#7D7D7D" width="1" height="8"/>
	<rect x="1" y="7" fill="#7D7D7D" width="12" height="1"/>
	<rect x="1" y="10" fill="#7D7D7D" width="12" height="1"/>
</g>
</svg>
