<?xml version="1.0" encoding="utf-8"?>
<!-- Generator: Adobe Illustrator 15.1.0, SVG Export Plug-In . SVG Version: 6.00 Build 0)  -->
<!DOCTYPE svg PUBLIC "-//W3C//DTD SVG 1.1//EN" "http://www.w3.org/Graphics/SVG/1.1/DTD/svg11.dtd">
<svg width="16px" height="16px" viewBox="0 0 16 16" enable-background="new 0 0 16 16" xml:space="preserve"><g><g><path fill="#FBFAFF" d="M8,14.5c-3.584,0-6.5-2.902-6.5-6.469c0-3.567,2.916-6.469,6.5-6.469s6.5,2.902,6.5,6.469C14.5,11.598,11.584,14.5,8,14.5z"/><path fill="#1B0887" d="M8,2.063c3.309,0,6,2.678,6,5.969S11.309,14,8,14s-6-2.678-6-5.969S4.691,2.063,8,2.063 M8,1.063c-3.866,0-7,3.12-7,6.969C1,11.88,4.134,15,8,15s7-3.12,7-6.969C15,4.182,11.866,1.063,8,1.063L8,1.063z"/></g><g><path fill="#1B0887" d="M8,8.031c0,0,0-4.066,0-6.969c-3.866,0-7,3.12-7,6.969C1,11.88,4.134,15,8,15C8,13.258,8,8.031,8,8.031z"/></g></g></svg>