<?xml version="1.0" encoding="utf-8"?>
<!-- Generator: Adobe Illustrator 15.1.0, SVG Export Plug-In . SVG Version: 6.00 Build 0)  -->
<!DOCTYPE svg PUBLIC "-//W3C//DTD SVG 1.1//EN" "http://www.w3.org/Graphics/SVG/1.1/DTD/svg11.dtd">
<svg version="1.1" xmlns="http://www.w3.org/2000/svg" xmlns:xlink="http://www.w3.org/1999/xlink" x="0px" y="0px"
	 width="16px" height="16px" viewBox="0 0 16 16" enable-background="new 0 0 16 16" xml:space="preserve">
<g id="Page-1-Copy-5" transform="translate(0.000000, 3.000000)">
	<path id="Stroke-3_3_" fill="none" stroke="#7D7D7D" d="M6.5,5c0,1.33,0.58,2.521,1.5,3.34C7.21,9.07,6.15,9.5,5,9.5
		C2.51,9.5,0.5,7.479,0.5,5c0-2.49,2.01-4.5,4.5-4.5c1.15,0,2.21,0.43,3,1.16C7.08,2.47,6.5,3.67,6.5,5L6.5,5z"/>
	<path id="Stroke-7_3_" fill="#7D7D7D" fill-opacity="0.7" stroke="#7D7D7D" d="M15.5,5c0,2.479-2.01,4.5-4.5,4.5
		c-1.15,0-2.21-0.43-3-1.16C8.92,7.521,9.5,6.33,9.5,5S8.92,2.47,8,1.66C8.79,0.93,9.85,0.5,11,0.5C13.49,0.5,15.5,2.51,15.5,5
		L15.5,5z"/>
	<path id="Stroke-11_3_" fill="#7D7D7D" fill-opacity="0.7" stroke="#7D7D7D" d="M9.5,5c0,1.33-0.58,2.521-1.5,3.34
		C7.08,7.521,6.5,6.33,6.5,5S7.08,2.47,8,1.66C8.92,2.47,9.5,3.67,9.5,5L9.5,5z"/>
</g>
<g id="cross_1_" transform="translate(0.000000, 9.000000)">
	<path id="Path-Copy_1_" fill="#7D7D7D" d="M5,5v2H2V5H0V2h2V0h3v2h2v3H5z"/>
	<path id="Path_1_" fill="#7D7D7D" d="M6,4L6,4V3H4V1H3v2H1v1h2v2h1V4H6z"/>
</g>
</svg>
